<svg xmlns="http://www.w3.org/2000/svg" xmlns:xlink="http://www.w3.org/1999/xlink" viewBox="0 0 1002.29 1002.29"><defs><style>.cls-1{isolation:isolate;}.cls-2{fill:url(#linear-gradient);}.cls-3{mix-blend-mode:multiply;fill:url(#linear-gradient-2);}.cls-4{fill:url(#linear-gradient-3);}.cls-5{fill:url(#linear-gradient-4);}.cls-6{fill:url(#linear-gradient-5);}.cls-7{fill:url(#linear-gradient-6);}.cls-8{fill:url(#linear-gradient-7);}.cls-9{fill:url(#linear-gradient-8);}.cls-10{fill:url(#linear-gradient-9);}</style><linearGradient id="linear-gradient" x1="150.05" y1="138.94" x2="858.68" y2="869.99" gradientTransform="translate(501.15 -207.58) rotate(45)" gradientUnits="userSpaceOnUse"><stop offset="0" stop-color="#6d6fae"/><stop offset="0.32" stop-color="#6866a8"/><stop offset="0.84" stop-color="#5a4e99"/><stop offset="1" stop-color="#554594"/></linearGradient><linearGradient id="linear-gradient-2" x1="547.54" y1="530" x2="828.61" y2="855.93" gradientUnits="userSpaceOnUse"><stop offset="0" stop-color="#bfc0c6"/><stop offset="0.28" stop-color="#d5d5d9"/><stop offset="0.74" stop-color="#f3f4f5"/><stop offset="1" stop-color="#fff"/></linearGradient><linearGradient id="linear-gradient-3" x1="225.4" y1="501.15" x2="776.9" y2="501.15" gradientUnits="userSpaceOnUse"><stop offset="0" stop-color="#fffdf6"/><stop offset="1" stop-color="#d8cbbb"/></linearGradient><linearGradient id="linear-gradient-4" x1="501.15" y1="302.4" x2="501.15" y2="680.17" gradientUnits="userSpaceOnUse"><stop offset="0" stop-color="#38b1e4"/><stop offset="0.19" stop-color="#36a8dd"/><stop offset="0.5" stop-color="#3190cb"/><stop offset="0.89" stop-color="#2968ae"/><stop offset="1" stop-color="#265ca5"/></linearGradient><linearGradient id="linear-gradient-5" x1="307.1" y1="660.3" x2="414.34" y2="719.02" gradientUnits="userSpaceOnUse"><stop offset="0" stop-color="#3babdf"/><stop offset="0.2" stop-color="#39a2d8"/><stop offset="0.53" stop-color="#328ac6"/><stop offset="0.94" stop-color="#2862a9"/><stop offset="1" stop-color="#265ca5"/></linearGradient><linearGradient id="linear-gradient-6" x1="553.24" y1="702.1" x2="581.26" y2="717.45" gradientUnits="userSpaceOnUse"><stop offset="0" stop-color="#4b8fc9"/><stop offset="0.28" stop-color="#4486c3"/><stop offset="0.73" stop-color="#336eb1"/><stop offset="1" stop-color="#265ca5"/></linearGradient><linearGradient id="linear-gradient-7" x1="457.7" y1="350.54" x2="670.98" y2="467.34" gradientUnits="userSpaceOnUse"><stop offset="0" stop-color="#f9c231"/><stop offset="0.37" stop-color="#ecba26"/><stop offset="1" stop-color="#cea60d"/></linearGradient><linearGradient id="linear-gradient-8" x1="526.53" y1="539.87" x2="649.09" y2="539.87" xlink:href="#linear-gradient-3"/><linearGradient id="linear-gradient-9" x1="447.38" y1="411.55" x2="447.38" y2="644.15" xlink:href="#linear-gradient-3"/></defs><title>logo</title><g class="cls-1"><g id="iconos"><circle class="cls-2" cx="501.15" cy="501.15" r="501.15" transform="translate(-207.58 501.15) rotate(-45)"/><path class="cls-3" d="M1002.29,501.15c0,263-202.55,478.62-460.15,499.47l-258-219.89,379.69-411.6,96.73-118.56Z"/><rect class="cls-4" x="225.4" y="221.57" width="551.5" height="559.16" rx="58.72"/><rect class="cls-5" x="264.7" y="267.53" width="472.9" height="378.71" rx="50.36"/><path class="cls-6" d="M531.74,716.89a10.21,10.21,0,0,1-10.22,10.22H299.39a10.21,10.21,0,0,1-10.21-10.22h0a10.21,10.21,0,0,1,10.21-10.21H521.52a10.22,10.22,0,0,1,10.22,10.21Z"/><path class="cls-7" d="M610.89,716.89a10.22,10.22,0,0,1-10.22,10.22H559.82a10.21,10.21,0,0,1-10.21-10.22h0a10.21,10.21,0,0,1,10.21-10.21h40.85a10.22,10.22,0,0,1,10.22,10.21Z"/><path class="cls-8" d="M647.91,401.57a97,97,0,1,1-97-97A97,97,0,0,1,647.91,401.57Z"/><polygon class="cls-9" points="591 456.47 497.42 623.26 688.42 623.26 591 456.47"/><polygon class="cls-10" points="444.71 390.08 313.88 623.26 580.89 623.26 444.71 390.08"/></g></g></svg>